<svg xmlns="http://www.w3.org/2000/svg" xmlns:xlink="http://www.w3.org/1999/xlink" width="100" height="100" viewBox="0 0 100 100"><g><g transform="translate(50 50) scale(0.69 0.69) rotate(0) translate(-50 -50)" style="fill:#000000"><svg fill="#000000" xmlns="http://www.w3.org/2000/svg" xmlns:xlink="http://www.w3.org/1999/xlink" version="1.1" x="0px" y="0px" viewBox="0 0 612 792" enable-background="new 0 0 612 792" xml:space="preserve"><g display="none"><g display="inline"><g display="none"><g display="inline"><path fill="#000000" d="M514.084,452.966l-17.987-0.006l0.024-35.979l17.979,0.007c14.88,0,26.989-12.112,26.989-26.996v-71.967      c0-14.884-12.109-26.996-27.002-26.996h-17.993v-35.98h17.987c34.73,0,62.981,28.257,62.981,62.976v71.967      C577.066,424.709,548.815,452.966,514.084,452.966L514.084,452.966z"></path><path fill="#000000" d="M0,580.521c0,24.864,19.964,44.981,44.64,44.981h522.713c24.677,0,44.646-20.117,44.646-44.981H0z"></path><path fill="#000000" d="M260.362,79.223c20.19,60.583-31.996,76.746-31.996,76.746l-0.239,0.374      c0.526-0.881,12.638-22.118-1.903-65.743c-20.19-60.583,31.996-76.74,31.996-76.74l0.239-0.367      C257.926,14.368,245.827,35.617,260.362,79.223z"></path><path fill="#000000" d="M323.063,79.223c20.187,60.583-31.996,76.746-31.996,76.746l-0.239,0.374      c0.521-0.881,12.632-22.118-1.903-65.743c-20.196-60.583,32.002-76.74,32.002-76.74l0.245-0.367      C320.633,14.368,308.527,35.617,323.063,79.223z"></path><path fill="#000000" d="M385.764,79.223c20.19,60.583-31.988,76.746-31.988,76.746l-0.238,0.374      c0.52-0.881,12.632-22.118-1.903-65.743c-20.188-60.583,32.002-76.74,32.002-76.74l0.238-0.367      C383.34,14.368,371.234,35.617,385.764,79.223z"></path><path fill="#000000" d="M135.065,192.078v287.878c0,39.78,32.192,71.966,71.966,71.966h197.925      c39.774,0,71.967-32.186,71.967-71.966V192.078H135.065z M422.943,470.959c0,4.964-4.033,8.997-8.997,8.997      c-4.978,0-8.996-4.033-8.996-8.997V237.054c0-4.963,4.015-8.997,8.996-8.997c4.964,0,8.997,4.033,8.997,8.997V470.959z"></path></g><text transform="matrix(1 0 0 1 -9.765625e-004 717.3037)" display="inline" font-family="'Arial-BoldMT'" font-size="30.6006">Created by Olivier Guin</text><text transform="matrix(1 0 0 1 -9.765625e-004 747.9063)" display="inline" font-family="'Arial-BoldMT'" font-size="30.6006">from the Noun Project</text></g><g><g><path fill="#000000" d="M361.756,194.489c-2.75,0-5-2.25-5-5V170.25c0-2.75-2.25-5-5-5H42.746c-2.75,0-5,2.25-5,5v19.239      c0,2.75,0,5.212,0,5.472c0,0.26,0,2.722,0,5.472v10.279c0,2.75,2.25,5,5,5h294.39c2.75,0,5,2.25,5,5v19.239c0,2.75,2.25,5,5,5      h231.46c2.75,0,5,2.25,5,5v280.506c0,2.75,2.25,5,5,5h4.619c2.75,0,5-2.25,5-5V199.489c0-2.75-2.25-5-5-5H361.756z"></path></g><path fill="#000000" d="M564.749,258.033h-231.46c-2.75,0-5-2.25-5-5v-19.239c0-2.75-2.25-5-5-5H14.279c-2.75,0-5,2.25-5,5     v19.239c0,2.75,0,5.212,0,5.472c0,0.259,0,2.721,0,5.471V594c0,2.75,2.25,5,5,5h30.784c2.75,0,4.992-0.282,4.981-0.627     c0,0,0,0,0-0.316c0-26.307,16.469-47.631,36.785-47.631c20.315,0,36.785,21.324,36.785,47.631c0,0.316,0,0.316,0,0.316     c-0.01,0.345,2.231,0.627,4.981,0.627h318.27c2.75,0,4.992-0.282,4.98-0.627c0,0,0,0,0-0.316     c0-26.307,16.471-47.631,36.785-47.631s36.784,21.324,36.784,47.631c0,0.316,0,0.316,0,0.316     c-0.01,0.345,2.231,0.627,4.981,0.627h34.35c2.75,0,5-2.25,5-5V263.033C569.749,260.283,567.499,258.033,564.749,258.033z      M183.504,466.905H51.463c0-0.117-0.003-0.235-0.003-0.354c0-36.002,17.411-66.751,41.982-79.124     c-8.416-7.192-13.758-17.877-13.758-29.815c0-21.657,17.557-39.214,39.214-39.214c21.657,0,39.214,17.557,39.214,39.214     c0,12.443-5.802,23.524-14.841,30.708c23.649,12.925,40.236,43.084,40.236,78.231     C183.508,466.67,183.505,466.788,183.504,466.905z M265.095,395.456v-8.864c0-2.75,2.25-5,5-5h106.014c2.75,0,5,2.25,5,5v8.864     c0,2.75-2.25,5-5,5H270.095C267.345,400.456,265.095,398.206,265.095,395.456z M536.736,439.787c0,2.75-2.25,5-5,5H359.699     c-2.75,0-5-2.25-5-5v-6.271c0-2.75,2.25-5,5-5h172.037c2.75,0,5,2.25,5,5V439.787z M536.736,395.456c0,2.75-2.25,5-5,5h-128.65     c-2.75,0-5-2.25-5-5v-8.864c0-2.75,2.25-5,5-5h128.65c2.75,0,5,2.25,5,5V395.456z M540.509,347.353c0,2.75-2.25,5-5,5H270.095     c-2.75,0-5-2.25-5-5v-6.035c0-2.75,2.25-5,5-5h265.414c2.75,0,5,2.25,5,5V347.353L540.509,347.353z"></path></g></g><g><g display="inline"><path fill="#000000" d="M48.745,555.143c0,3.301,2.7,6,6,6h78c3.3,0,6-2.699,6-6V228.5c0-3.3-2.7-6-6-6h-78c-3.3,0-6,2.7-6,6     V555.143z"></path></g><g display="inline"><path fill="#000000" d="M154.745,555.143c0,3.301,2.7,6,6,6h78c3.3,0,6-2.699,6-6V308.5c0-3.3-2.7-6-6-6h-78c-3.3,0-6,2.7-6,6     V555.143z"></path></g><g display="inline"><path fill="#000000" d="M260.745,555.143c0,3.301,2.7,6,6,6h78c3.3,0,6-2.699,6-6V356.5c0-3.3-2.7-6-6-6h-78c-3.3,0-6,2.7-6,6     V555.143z"></path></g><g display="inline"><path fill="#000000" d="M367.245,555.143c0,3.301,2.7,6,6,6h78c3.3,0,6-2.699,6-6V420.5c0-3.3-2.7-6-6-6h-78c-3.3,0-6,2.7-6,6     V555.143z"></path></g><g display="inline"><path fill="#000000" d="M479.668,472.5c-3.3,0-6,2.7-6,6v83.893c0,3.301,2.7,6,6,6h78c3.3,0,6-2.699,6-6V478.5c0-3.3-2.7-6-6-6     H479.668z"></path></g><path display="inline" fill="#000000" d="M599.733,561.798c0-4.228-4.552-7.655-10.164-7.655H22.898    c-5.614,0-10.165,3.429-10.165,7.655v24.243c0,4.228,4.551,7.655,10.165,7.655h566.671c5.612,0,10.164-3.429,10.164-7.655V561.798    L599.733,561.798z"></path><g display="inline"><path fill="#000000" d="M559.019,383.797c3.294,0.211,4.785-2.034,3.315-4.989l-42.932-86.299     c-1.471-2.955-4.166-3.124-5.993-0.375l-17.035,25.632c-1.827,2.749-5.626,3.59-8.442,1.87l-143.146-87.418     c-2.816-1.72-5.113-3.452-5.104-3.85c0.01-0.398-0.545-0.736-1.23-0.752c-0.687-0.016-1.435-0.142-1.661-0.281     c-0.228-0.139-0.479-0.145-0.559-0.013c-0.08,0.132-2.846,0.177-6.145,0.101l-45.019-1.036c-3.299-0.076-8.36-1.446-11.248-3.045     L63.845,107.058c-2.887-1.599-6.557-0.545-8.156,2.342l-6.299,11.372c-1.599,2.887-0.545,6.557,2.342,8.156l214.312,118.688     c2.887,1.599,5.246,3.032,5.243,3.185c-0.003,0.153,0.232,0.283,0.523,0.29c0.291,0.007,0.689,0.101,0.884,0.208     c0.195,0.107,0.401,0.113,0.458,0.011c0.057-0.102,2.802-0.124,6.102-0.047l44.654,1.027c3.299,0.076,8.303,1.545,11.119,3.265     l139.055,84.921c2.816,1.72,3.627,5.375,1.8,8.124l-15.723,23.658c-1.827,2.749-0.627,5.169,2.666,5.38L559.019,383.797z"></path></g></g></g><g display="none"><circle display="inline" fill="#000000" cx="306.98" cy="299.25" r="284"></circle></g><g><polygon fill="#000000" points="-1569.868,308.311 -1584.065,304.507 -1573.672,294.114  "></polygon><path d="M393.635,290.138c0-16.916-5.484-32.006-16.451-45.27c-10.968-13.259-31.364-26.988-61.184-41.182V90.138   c24.227,0.86,43.656,7.026,58.28,18.495V72.073C363.527,64.906,344.099,60.891,316,60.03V22.181h-22.365v38.709   c-21.795,3.011-39.785,12.08-53.979,27.205c-14.193,15.127-21.29,33.084-21.29,53.87c0,17.494,4.657,32.655,13.979,45.485   c9.317,12.832,29.747,26.848,61.29,42.043v110.107c-12.473,0-25.913-2.474-40.322-7.42s-25.772-11.076-34.086-18.387v37.418   c19.066,12.332,43.871,18.496,74.408,18.496l0.977,90.021l-44.523-0.106l55.682,96.979l56.143-96.711l-44.932-0.107L316,367.987   c24.373-3.871,43.404-12.722,57.098-26.561C386.787,327.593,393.635,310.497,393.635,290.138z M293.635,191.644   c-14.623-8.028-24.805-15.984-30.537-23.871c-5.736-7.883-8.603-17.991-8.603-30.323c0-11.754,3.513-21.754,10.538-30   c7.023-8.243,16.559-13.582,28.602-16.021V191.644z M316,337.88v-97.205c27.668,15.198,41.507,32.688,41.507,52.474   C357.507,316.949,343.668,331.858,316,337.88z"></path></g></svg></g></g></svg>