<svg xmlns="http://www.w3.org/2000/svg" xmlns:xlink="http://www.w3.org/1999/xlink" width="100" height="100" viewBox="0 0 100 100"><g><g transform="translate(50 50) scale(0.69 0.69) rotate(0) translate(-50 -50)" style="fill:#000000"><svg fill="#000000" xmlns="http://www.w3.org/2000/svg" xmlns:xlink="http://www.w3.org/1999/xlink" viewBox="0 0 40 40" version="1.1" x="0px" y="0px"><title>Coin Pig Money</title><desc>Created with Sketch.</desc><g stroke="none" stroke-width="1" fill="none" fill-rule="evenodd"><path d="M27,30.3642974 C26.2624326,30.7700032 25.1845993,31 24,31 C22.8154007,31 21.7375674,30.7700032 21,30.3642974 L21,31.0000001 C21,31.4364487 22.314953,32 24,32 C25.685047,32 27,31.4364487 27,31 L27,30.3642974 Z M28,29 L28,35 C28,36.2204055 26.1809462,37 24,37 C21.8190538,37 20,36.2204055 20,35 L20,29 C20,27.7795945 21.8190538,27 24,27 C26.1809462,27 28,27.7795945 28,29 Z M27,35 L27,34.5273663 C26.2898826,34.8484015 25.2437537,35 24,35 C22.7562463,35 21.7101174,34.8484015 21,34.5273663 L21,35 C21,35.4364487 22.314953,36 24,36 C25.685047,36 27,35.4364487 27,35 Z M27,33.25 L27,32.3642974 C26.2624326,32.7700032 25.1845993,33 24,33 C22.8154007,33 21.7375674,32.7700032 21,32.3642974 L21,33.2500001 C21,33.604506 22.1988526,34 24,34 C25.8011474,34 27,33.604506 27,33.25 Z M24,30 C25.685047,30 27,29.4364487 27,29 C27,28.5635513 25.685047,28 24,28 C22.314953,28 21,28.5635513 21,29 C21,29.4364487 22.314953,30 24,30 Z" fill="#000000" fill-rule="nonzero"></path><path d="M34,34.3642974 C33.2624326,34.7700032 32.1845993,35 31,35 C29.8154007,35 28.7375674,34.7700032 28,34.3642974 L28,35 C28,35.4364487 29.314953,36 31,36 C32.685047,36 34,35.4364487 34,35 L34,34.3642974 Z M35,33 L35,35 C35,36.2204055 33.1809462,37 31,37 C28.8190538,37 27,36.2204055 27,35 L27,33 C27,31.7795945 28.8190538,31 31,31 C33.1809462,31 35,31.7795945 35,33 Z M31,34 C32.685047,34 34,33.4364487 34,33 C34,32.5635513 32.685047,32 31,32 C29.314953,32 28,32.5635513 28,33 C28,33.4364487 29.314953,34 31,34 Z" fill="#000000" fill-rule="nonzero"></path><path d="M13.6856953,13.9642383 C13.4293036,14.066795 13.1383184,13.9420871 13.0357617,13.6856953 C12.933205,13.4293036 13.0579129,13.1383184 13.3143047,13.0357617 C16.7626338,11.65643 20.5504288,11.65643 24.6581139,13.0256584 C24.9200855,13.1129822 25.0616655,13.3961422 24.9743416,13.6581139 C24.8870178,13.9200855 24.6038578,14.0616655 24.3418861,13.9743416 C20.4495712,12.6769033 16.9040329,12.6769033 13.6856953,13.9642383 Z" fill="#000000" fill-rule="nonzero"></path><path d="M19,12 C21.209139,12 23,10.209139 23,8 C23,5.790861 21.209139,4 19,4 C16.790861,4 15,5.790861 15,8 C15,10.209139 16.790861,12 19,12 Z M19,13 C16.2385763,13 14,10.7614237 14,8 C14,5.23857625 16.2385763,3 19,3 C21.7614237,3 24,5.23857625 24,8 C24,10.7614237 21.7614237,13 19,13 Z" fill="#000000" fill-rule="nonzero"></path><path d="M34.2416741,13.5622859 C35.0031607,13.9827239 35.713876,13.9588856 36.0393029,13.6351233 C36.3319743,13.343949 36.2620512,12.8093345 35.6395066,12.1616004 C35.0833101,11.5828991 33.8969712,11 33,11 C32.8203054,11 32.6527136,11.0098979 32.4970588,11.0300567 C32.5755879,11.9208809 33.1904897,12.9818977 34.2416741,13.5622859 Z M33,10 C34.1908304,10 35.6273132,10.7058054 36.3604934,11.4686517 C37.3253231,12.4725203 37.4750532,13.6173185 36.7445942,14.3440409 C36.0694371,15.0157444 34.8776403,15.0557188 33.7583259,14.4377141 C32.5263042,13.7574805 31.7357416,12.5468461 31.5395079,11.3880489 C30.984625,11.8188469 31.2417827,12.6246756 31.4228985,13.871007 C31.4626101,14.144279 31.273272,14.3980024 31,14.4377141 C30.726728,14.4774257 30.4730046,14.2880876 30.433293,14.0148156 C30.148367,12.0541238 30.2556568,10.7521595 31.5524326,10.2424558 C31.6437431,9.81863532 31.8392861,9.43522023 32.1489572,9.12990087 C33.5994501,7.69979154 35.91154,7.70443318 37.8535534,9.64644661 C38.0488155,9.84170876 38.0488155,10.1582912 37.8535534,10.3535534 C37.6582912,10.5488155 37.3417088,10.5488155 37.1464466,10.3535534 C35.593489,8.80059579 33.91071,8.79721753 32.8510428,9.84199342 C32.7998444,9.8924723 32.7542137,9.94785752 32.7140588,10.0075527 C32.8071081,10.0025248 32.9024251,10 33,10 Z" fill="#000000" fill-rule="nonzero"></path><path d="M18.5,10.4771375 C17.5579915,10.3846055 17,10.0069758 17,9.26773563 C17,8.99159326 17.2238576,8.76773563 17.5,8.76773563 C17.7761424,8.76773563 18,8.99159326 18,9.26773563 C18,9.38215035 18.241408,9.5 19,9.5 C19.7564829,9.5 20,9.33765527 20,9 C20,8.66234473 19.7564829,8.5 19,8.5 C17.7564829,8.5 17,7.99567806 17,7 C17,6.09324261 17.553131,5.55418328 18.5,5.41970414 L18.5,5 C18.5,4.72385763 18.7238576,4.5 19,4.5 C19.2761424,4.5 19.5,4.72385763 19.5,5 L19.5,5.41022577 C20.0010542,5.46174359 20.3721495,5.59594123 20.6291241,5.80619899 C20.8945678,6.02338615 21,6.28218145 21,6.5 C21,6.77614237 20.7761424,7 20.5,7 C20.2312745,7 20.0120628,6.78800595 20.0004811,6.52213403 C20.0026789,6.57146372 20.0095228,6.5913137 19.9958759,6.58014773 C19.8631866,6.4715808 19.5506703,6.38634672 19,6.38634672 C18.249334,6.38634672 18,6.5714611 18,7 C18,7.33765527 18.2435171,7.5 19,7.5 C20.2435171,7.5 21,8.00432194 21,9 C21,9.85414241 20.4432992,10.3466926 19.5,10.4694653 L19.5,10.9572134 C19.5,11.2333558 19.2761424,11.4572134 19,11.4572134 C18.7238576,11.4572134 18.5,11.2333558 18.5,10.9572134 L18.5,10.4771375 Z" fill="#000000" fill-rule="nonzero"></path><path d="M5.70710678,9.79289322 C5.68634141,9.77212785 5.71247785,9.81500046 5.72077652,10.0080067 C5.7378839,10.4058812 5.48986515,10.6804175 5.24946828,10.761507 C5.29759797,10.7452721 5.65357812,10.7653029 6.09878599,10.8633095 C6.24840462,10.896246 6.39823623,10.9348171 6.546271,10.9779679 C6.33322851,10.5406356 6.0564639,10.1422503 5.70710678,9.79289322 Z M20.4835416,30.9414857 C19.9935264,30.9803702 19.4985487,31 19,31 C18.0350097,31 17.0829895,30.9264616 16.1537741,30.7818523 L15,30.6022961 L15,32 C15,32.5522847 14.5522847,33 14,33 C13.4477153,33 13,32.5522847 13,32 L13,29.9998589 L12.3755909,29.7468097 C9.93694913,28.758521 7.93672316,27.2447753 6.63824336,25.4201822 L6.3392188,25 L4,25 C3.44771525,25 3,24.5522847 3,24 L3,22 C3,21.4477153 3.44771525,21 4,21 L4.91790971,21 L5.02537387,20.1214095 C5.07632197,19.704875 5.20162129,19.1996691 5.39177469,18.6296959 C5.54414602,18.1729722 5.73415814,17.6861314 5.95319655,17.1818074 C6.17094196,16.6804604 6.40500386,16.1896712 6.63894161,15.7312092 C6.77852438,15.4576603 6.8859075,15.2577289 6.94476424,15.1524684 L7.03119207,14.9978993 L7.05928269,14.8230499 C7.12512198,14.413235 7.16341551,13.7864473 7.09405587,13.0508412 C7.0233028,12.3004568 6.84920912,11.5998374 6.546271,10.9779679 C7.5244958,11.2631115 8.42425788,11.7482349 8.66561085,12.1289578 L9.19838323,12.9693812 L10.0414311,12.4407716 C11.4589664,11.5519456 13.0959294,10.879299 14.864307,10.4678621 L14.6376962,9.49387668 C12.7424677,9.93482721 11.0060236,10.6556302 9.51020077,11.5935441 C8.5,10 3.5,9 5,10.5 C6.5,12 6.07194333,14.6644278 6.07194333,14.6644278 C6.07194333,14.6644278 4.2971545,17.838493 4.03277136,20 L4,20 C2.8954305,20 2,20.8954305 2,22 L2,24 C2,25.1045695 2.8954305,26 4,26 L5.82349716,26 C7.2362813,27.9852109 9.39011335,29.6159076 12,30.6735952 L12,32 C12,33.1045695 12.8954305,34 14,34 C14.835977,34 15.5521593,33.487098 15.8510294,32.7588113 L16,31.7699583 L17,31.8986686 C17.6542747,31.9655014 18.3218824,32 19,32 C19.5079111,32 20.0099261,31.9806462 20.5048588,31.942848 M27.4708768,29.992032 C31.4135486,27.9199479 34,24.4415449 34,20.5 C34,15.3163616 29.5265689,10.9337564 23.3779875,9.49753292 L23.1505244,10.4713196 C28.9948144,11.8364648 33,15.918496 33,20.5 C33,23.8378527 30.8815053,26.9450017 27.3502122,28.9201833 M5.70710678,9.79289322 C5.68634141,9.77212785 5.71247785,9.81500046 5.72077652,10.0080067 C5.7378839,10.4058812 5.48986515,10.6804175 5.24946828,10.761507 C5.29759797,10.7452721 5.65357812,10.7653029 6.09878599,10.8633095 C6.24840462,10.896246 6.39823623,10.9348171 6.546271,10.9779679 C6.33322851,10.5406356 6.0564639,10.1422503 5.70710678,9.79289322 Z M19,31 C18.0350097,31 17.0829895,30.9264616 16.1537741,30.7818523 L15,30.6022961 L15,32 C15,32.5522847 14.5522847,33 14,33 C13.4477153,33 13,32.5522847 13,32 L13,29.9998589 L12.3755909,29.7468097 C9.93694913,28.758521 7.93672316,27.2447753 6.63824336,25.4201822 L6.3392188,25 L4,25 C3.44771525,25 3,24.5522847 3,24 L3,22 C3,21.4477153 3.44771525,21 4,21 L4.91790971,21 L5.02537387,20.1214095 C5.07632197,19.704875 5.20162129,19.1996691 5.39177469,18.6296959 C5.54414602,18.1729722 5.73415814,17.6861314 5.95319655,17.1818074 C6.17094196,16.6804604 6.40500386,16.1896712 6.63894161,15.7312092 C6.77852438,15.4576603 6.8859075,15.2577289 6.94476424,15.1524684 L7.03119207,14.9978993 L7.05928269,14.8230499 C7.12512198,14.413235 7.16341551,13.7864473 7.09405587,13.0508412 C7.0233028,12.3004568 6.84920912,11.5998374 6.546271,10.9779679 C7.5244958,11.2631115 8.42425788,11.7482349 8.66561085,12.1289578 L9.19838323,12.9693812 L10.0414311,12.4407716 C11.4589664,11.5519456 13.0959294,10.879299 14.864307,10.4678621 L14.6376962,9.49387668 C12.7424677,9.93482721 11.0060236,10.6556302 9.51020077,11.5935441 C8.5,10 3.5,9 5,10.5 C6.5,12 6.07194333,14.6644278 6.07194333,14.6644278 C6.07194333,14.6644278 4.2971545,17.838493 4.03277136,20 L4,20 C2.8954305,20 2,20.8954305 2,22 L2,24 C2,25.1045695 2.8954305,26 4,26 L5.82349716,26 C7.2362813,27.9852109 9.39011335,29.6159076 12,30.6735952 L12,32 C12,33.1045695 12.8954305,34 14,34 C14.835977,34 15.5521593,33.487098 15.8510294,32.7588113 L16,31.7699583 L17,31.8986686 C17.6542747,31.9655014 18.3218824,32 19,32 M34,20.5 C34,15.3163616 29.5265689,10.9337564 23.3779875,9.49753292 L23.1505244,10.4713196 C28.9948144,11.8364648 33,15.918496 33,20.5" fill="#000000" fill-rule="nonzero"></path></g></svg></g></g></svg>