<svg xmlns="http://www.w3.org/2000/svg" xmlns:xlink="http://www.w3.org/1999/xlink" width="100" height="100" viewBox="0 0 100 100"><g><g transform="translate(50 50) scale(0.69 0.69) rotate(0) translate(-50 -50)" style="fill:#000000"><svg fill="#000000" xmlns="http://www.w3.org/2000/svg" xmlns:xlink="http://www.w3.org/1999/xlink" version="1.1" x="0px" y="0px" viewBox="0 0 32 32" style="enable-background:new 0 0 32 32;" xml:space="preserve"><g><path d="M15,25c-0.265,0-0.519-0.105-0.707-0.293l-4-4c-0.391-0.391-0.391-1.023,0-1.414s1.023-0.391,1.414,0l3.244,3.244   l6.296-7.196c0.365-0.416,0.996-0.458,1.411-0.094c0.416,0.364,0.458,0.995,0.095,1.411l-7,8c-0.182,0.209-0.442,0.332-0.719,0.341   C15.022,25,15.011,25,15,25z"></path><path d="M29.496,32H2.504C1.124,32,0,30.877,0,29.496V4.505C0,3.124,1.124,2,2.505,2h26.99C30.876,2,32,3.124,32,4.505v24.991   C32,30.877,30.877,32,29.496,32z M2.505,4C2.227,4,2,4.227,2,4.505v24.991C2,29.774,2.226,30,2.504,30h26.992   C29.774,30,30,29.774,30,29.496V4.505C30,4.227,29.773,4,29.495,4H2.505z"></path><path d="M31,10H1c-0.552,0-1-0.448-1-1s0.448-1,1-1h30c0.553,0,1,0.448,1,1S31.553,10,31,10z"></path><path d="M6,6C5.448,6,5,5.552,5,5V1c0-0.552,0.448-1,1-1s1,0.448,1,1v4C7,5.552,6.552,6,6,6z"></path><path d="M26,6c-0.553,0-1-0.448-1-1V1c0-0.552,0.447-1,1-1s1,0.448,1,1v4C27,5.552,26.553,6,26,6z"></path></g></svg></g></g></svg>