<svg xmlns="http://www.w3.org/2000/svg" xmlns:xlink="http://www.w3.org/1999/xlink" width="100" height="100" viewBox="0 0 100 100"><g><g transform="translate(50 50) scale(0.69 0.69) rotate(0) translate(-50 -50)" style="fill:#000000"><svg fill="#000000" xmlns="http://www.w3.org/2000/svg" data-name="Layer 1" viewBox="0 0 100 100" x="0px" y="0px"><title>Artboard 10</title><path d="M4,49.99365A46.04392,46.04392,0,0,0,19.61133,84.5415c1.13379.98779,2.19727,1.83984,3.24512,2.60059A45.66693,45.66693,0,0,0,49.99316,96a41.25607,41.25607,0,0,0,4.49609-.22754,45.30157,45.30157,0,0,0,17.709-5.47314A46.22778,46.22778,0,0,0,89.52148,73.55469l.00415-.00751.00031-.00055A46.007,46.007,0,0,0,96,49.99365a46.551,46.551,0,0,0-.69727-8.01221c-.13574-.81494-.31055-1.65234-.5332-2.55615l-.00476-.022-.00354-.01666-.0083-.03851c-.21484-.92871-.44629-1.78809-.70117-2.60449A46.19747,46.19747,0,0,0,77.1582,12.87207,45.63089,45.63089,0,0,0,49.99316,4H49.416A45.79724,45.79724,0,0,0,33.977,6.8692c-.30383.07764-.60571.176-.90082.27924a8.76942,8.76942,0,0,0-1.515.69836l-.01141.00525A46.16419,46.16419,0,0,0,8.543,30.02344c-.01526.03174-.02771.06433-.04291.09613l-.00073.00159A45.77773,45.77773,0,0,0,4,49.99365Zm4,0a41.7802,41.7802,0,0,1,3.82288-17.5094,31.444,31.444,0,0,1,8.124-1.80273,5.94113,5.94113,0,0,0,3.6015,3.32971A86.929,86.929,0,0,0,25.56427,47.211a8.39422,8.39422,0,0,0-.44,14.49707,84.61013,84.61013,0,0,0-3.02063,19.39069c-.11487-.00745-.23035-.01221-.345-.02A42.03023,42.03023,0,0,1,8,49.99365Zm46.79651,41.7135a34.59719,34.59719,0,0,1-6.35522-5.74573,7.05263,7.05263,0,0,0,1.32178-3.81415A74.78285,74.78285,0,0,0,71.08459,72.407a41.12349,41.12349,0,0,1-1.50006,14.74445A41.31558,41.31558,0,0,1,54.79651,91.70715ZM33.29395,11.4541l.00256-.00134c.60413-.26721,1.23163-.51184,1.87689-.76288,3.739-.82416,8.60913,1.65015,13.72308,6.9776.46619.48718.93958,1.01135,1.42108,1.56073a5.76614,5.76614,0,0,0-.671,4.61053q-1.15732.89594-2.31659,1.89764a7.11176,7.11176,0,0,0-9.59259,2.36841,63.23585,63.23585,0,0,0-6.769-1.21967A5.826,5.826,0,0,0,27.735,23.11426C28.51361,17.23956,30.4682,13.12354,33.29395,11.4541ZM39.54,82.31592a3.39813,3.39813,0,0,1-.043-.50342,3.14349,3.14349,0,0,1,6.2168-.65967,2.79431,2.79431,0,0,1,.06836.65967,3.10886,3.10886,0,0,1-1.23145,2.48828A3.13421,3.13421,0,0,1,39.54,82.31592Zm9.2771-4.05658a7.0981,7.0981,0,0,0-8.19733-3.29382,96.97787,96.97787,0,0,1-6.41864-13.33459,8.37867,8.37867,0,0,0,.63513-13.62054A68.76174,68.76174,0,0,1,40.89673,38.457a7.1179,7.1179,0,0,0,8.53339-2.20685,77.53615,77.53615,0,0,1,7.69,3.8924A82.42056,82.42056,0,0,1,65.151,45.44611c.14484.38983.29.77887.431,1.18378A98.24637,98.24637,0,0,1,70.686,67.78668,69.99391,69.99391,0,0,1,48.81714,78.25934ZM46.001,29.7124a3.14867,3.14867,0,0,1,.89941,2.20557,3.10551,3.10551,0,0,1-.19824,1.0957,3.15255,3.15255,0,0,1-4.98926,1.2998A3.20156,3.20156,0,0,1,40.61621,31.918a3.09047,3.09047,0,0,1,.13184-.9082A3.14763,3.14763,0,0,1,46.001,29.7124Zm13.12109,6.96729a81.29935,81.29935,0,0,0-8.274-4.17352c.01624-.19635.05231-.38977.05231-.5882a7.1131,7.1131,0,0,0-.80023-3.28619q.929-.79752,1.85657-1.52045a5.77715,5.77715,0,0,0,4.74243.87152,89.32855,89.32855,0,0,1,4.88776,8.97223c.01855.04736.03809.09375.06055.14014.24329.513.48419,1.04071.72412,1.57269C61.29358,37.97845,60.21082,37.30786,59.12207,36.67969Zm-1.97266-14.376A1.85693,1.85693,0,1,1,55.293,20.44678,1.85892,1.85892,0,0,1,57.14941,22.30371ZM30.66376,30.87622a59.20934,59.20934,0,0,1,5.9541,1.07251,7.14336,7.14336,0,0,0,1.214,3.93115A72.77447,72.77447,0,0,0,31.20361,46.3266a8.4067,8.4067,0,0,0-1.6001-.15863c-.05878,0-.11346.01068-.17194.01184a82.85994,82.85994,0,0,1-1.88367-12.31219A5.90077,5.90077,0,0,0,30.66376,30.87622ZM28.459,50.32666a3.95411,3.95411,0,0,1,1.14453-.15869,4.30877,4.30877,0,0,1,1.792.3833,4.43262,4.43262,0,1,1-2.93652-.22461Zm.4585,12.6684c.22748.01862.45624.02887.686.02887.2807,0,.55743-.0174.83154-.04382a100.79634,100.79634,0,0,0,6.822,14.1543,7.12533,7.12533,0,0,0-1.683,3.676,81.26006,81.26006,0,0,1-9.47345.438A80.63661,80.63661,0,0,1,28.91748,62.99506Zm7.22144,21.78436a7.06522,7.06522,0,0,0,9.13776,3.643A47.006,47.006,0,0,0,48.73,91.9754a41.62314,41.62314,0,0,1-21.53973-6.7121A85.70092,85.70092,0,0,0,36.13892,84.77942ZM74.34363,64.94391a101.09569,101.09569,0,0,0-3.33209-14.60919,64.40861,64.40861,0,0,1,6.16644,6.569,5.81742,5.81742,0,0,0-.37982,5.845Q75.6055,63.88028,74.34363,64.94391Zm5.8429-4.78473a1.85693,1.85693,0,1,1,1.85742,1.85645A1.85913,1.85913,0,0,1,80.18652,60.15918Zm3.6239-5.58337a5.80412,5.80412,0,0,0-3.403-.03644,71.79154,71.79154,0,0,0-11.929-11.58618C67.475,40.32629,66.415,37.822,65.32129,35.50684c-.01855-.0459-.03711-.09131-.05859-.13623-.22009-.46619-.451-.91663-.67627-1.37555A49.4258,49.4258,0,0,0,90.073,41.92029c-.06366.18433-.12079.36371-.18726.54993A55.32645,55.32645,0,0,1,83.81042,54.57581ZM59.07373,17.8382a5.74209,5.74209,0,0,0-4.6983-1.31226,33.88865,33.88865,0,0,1-2.09613-5.876c-.22034-.86737-.39777-1.74072-.54517-2.61377a41.58763,41.58763,0,0,1,19.00916,5.43665A53.73168,53.73168,0,0,0,59.07373,17.8382ZM48.40137,11.63184c.01056.04187.02466.08331.0354.12512a27.91275,27.91275,0,0,0-4.76892-3.28021c1.33563-.20251,2.68121-.34528,4.035-.418C47.88269,9.25323,48.10107,10.44855,48.40137,11.63184ZM25.334,26.59033l.03.00244.01007.002.0307.0014c.01617.00122.0321.00317.0484.004a1.8351,1.8351,0,0,1,1.752,1.86914l-.0022.0235-.00171.00873.00006.0094-.00592.06384a1.85525,1.85525,0,0,1-3.7041-.03809v-.08984A1.86471,1.86471,0,0,1,25.334,26.59033ZM74.46777,84.12195a54.95248,54.95248,0,0,0,.4278-14.48077,61.68274,61.68274,0,0,0,4.79291-4.124,5.7516,5.7516,0,0,0,3.41577.3974,35.38,35.38,0,0,1,2.52264,6.30566A42.19352,42.19352,0,0,1,74.46777,84.12195ZM88.20233,67.41907c-.47766-1.17682-1.0376-2.35437-1.64661-3.5304a5.83012,5.83012,0,0,0,.42615-6.86548,59.93845,59.93845,0,0,0,4.971-8.97333c.03.64844.04712,1.29675.04712,1.94379A42.04885,42.04885,0,0,1,88.20233,67.41907Zm2.02423-29.50549.00293.01007a45.07622,45.07622,0,0,1-24.97656-8.325q-.0791-.07031-.16406-.1333a37.97145,37.97145,0,0,1-4.78845-4.14,5.72121,5.72121,0,0,0,.75873-4.0116A49.23505,49.23505,0,0,1,75.451,16.60059,42.19406,42.19406,0,0,1,90.22656,37.91357ZM25.28711,16.03894A32.18425,32.18425,0,0,0,23.736,22.8208a5.87754,5.87754,0,0,0-3.96185,3.834,38.77535,38.77535,0,0,0-5.23175.82886A42.17948,42.17948,0,0,1,25.28711,16.03894Z"></path></svg></g></g></svg>