<svg xmlns="http://www.w3.org/2000/svg" xmlns:xlink="http://www.w3.org/1999/xlink" width="100" height="100" viewBox="0 0 100 100"><g><g transform="translate(50 50) scale(0.69 0.69) rotate(0) translate(-50 -50)" style="fill:#000000"><svg fill="#000000" xmlns="http://www.w3.org/2000/svg" xmlns:xlink="http://www.w3.org/1999/xlink" version="1.1" x="0px" y="0px" viewBox="0 0 128 128" style="enable-background:new 0 0 128 128;" xml:space="preserve"><path d="M103.944,51.166H93.622v-21.75C93.622,13.17,80.36,0,63.999,0C47.641,0,34.377,13.17,34.377,29.416v21.75H24.056  c-4.449,0-8.056,3.582-8.056,8V120c0,4.418,3.607,8,8.056,8h79.888c4.448,0,8.056-3.582,8.056-8V59.166  C112,54.748,108.393,51.166,103.944,51.166z M38.377,29.416C38.377,15.401,49.871,4,63.999,4c14.128,0,25.624,11.401,25.624,25.416  V51H38.377V29.416z M108,120c0,2.206-1.819,4-4.056,4H24.056C21.82,124,20,122.206,20,120V59.166c0-2.206,1.82-4,4.056-4h79.888  c2.236,0,4.056,1.794,4.056,4V120z"></path><path d="M63.883,95.853c-2.553,0-4.624,2.055-4.624,4.591c0,1.8,1.048,3.356,2.569,4.106v6.178c0,1.125,0.92,2.039,2.055,2.039  s2.056-0.914,2.056-2.039v-6.178c1.521-0.75,2.568-2.306,2.568-4.106C68.507,97.908,66.437,95.853,63.883,95.853z"></path><path d="M93.973,79.009c-0.237-0.302-0.479-0.601-0.725-0.896c-7.277-8.715-17.958-13.714-29.301-13.714  c-11.9,0-22.906,5.404-30.196,14.827c-0.676,0.873-0.516,2.13,0.358,2.806c0.874,0.675,2.13,0.516,2.806-0.358  c6.527-8.436,16.38-13.274,27.032-13.274c10.154,0,19.715,4.476,26.23,12.278c0.221,0.264,0.437,0.531,0.638,0.788l0.252,0.325  c0.393,0.523,0.993,0.8,1.602,0.8c0.417,0,0.838-0.13,1.198-0.4c0.884-0.662,1.063-1.916,0.399-2.8L93.973,79.009z"></path><path d="M63.947,72.42c-9.887,0-18.968,4.54-24.913,12.455c-0.664,0.883-0.485,2.137,0.398,2.801c0.36,0.27,0.782,0.4,1.2,0.4  c0.607,0,1.208-0.275,1.601-0.799c5.183-6.9,13.097-10.857,21.714-10.857c8.553,0,16.431,3.91,21.614,10.729  c0.668,0.878,1.922,1.053,2.802,0.382c0.88-0.668,1.051-1.923,0.382-2.802C82.8,76.906,73.761,72.42,63.947,72.42z"></path><path d="M83.39,89.808c-4.659-6.137-11.746-9.656-19.442-9.656c-7.849,0-15.27,3.813-19.85,10.202  c-0.644,0.897-0.438,2.146,0.46,2.79c0.353,0.254,0.76,0.375,1.164,0.375c0.623,0,1.236-0.29,1.627-0.835  c3.831-5.343,10.036-8.532,16.599-8.532c6.435,0,12.36,2.943,16.266,8.086l0.273,0.366c0.654,0.89,1.889,1.054,2.777,0.398  c0.89-0.655,1.061-1.932,0.405-2.821C83.574,90.052,83.479,89.923,83.39,89.808z"></path><path d="M63.947,88.001c-5.948,0-11.444,2.976-14.703,7.959c-0.604,0.925-0.345,2.164,0.579,2.769  c0.925,0.604,2.164,0.346,2.769-0.579c2.518-3.85,6.763-6.148,11.355-6.148c4.637,0,8.904,2.333,11.414,6.242  c0.382,0.595,1.026,0.919,1.685,0.919c0.37,0,0.745-0.103,1.079-0.317c0.929-0.597,1.198-1.834,0.602-2.764  C75.477,91.021,69.952,88.001,63.947,88.001z"></path></svg></g></g></svg>