<?xml version="1.0" encoding="UTF-8" standalone="no"?>
<svg
   xmlns:dc="http://purl.org/dc/elements/1.1/"
   xmlns:cc="http://creativecommons.org/ns#"
   xmlns:rdf="http://www.w3.org/1999/02/22-rdf-syntax-ns#"
   xmlns:svg="http://www.w3.org/2000/svg"
   xmlns="http://www.w3.org/2000/svg"
   xmlns:sodipodi="http://sodipodi.sourceforge.net/DTD/sodipodi-0.dtd"
   xmlns:inkscape="http://www.inkscape.org/namespaces/inkscape"
   height="100"
   width="500"
   version="1.1"
   x="0px"
   y="0px"
   viewBox="0 0 500 100"
   enable-background="new 0 0 100 100"
   xml:space="preserve"
   id="svg3799"
   sodipodi:docname="radio_tower_logo.svg"
   inkscape:export-filename="/home/lurker/Documents/Source/massmesh.github.io/images/radio_tower_logo.png"
   inkscape:export-xdpi="96"
   inkscape:export-ydpi="96"
   inkscape:version="0.92.4 5da689c313, 2019-01-14"
   style="fill:#ffffff"><metadata
   id="metadata3805"><rdf:RDF><cc:Work
       rdf:about=""><dc:format>image/svg+xml</dc:format><dc:type
         rdf:resource="http://purl.org/dc/dcmitype/StillImage" /><dc:title></dc:title></cc:Work></rdf:RDF></metadata><defs
   id="defs3803" /><sodipodi:namedview
   pagecolor="#ffffff"
   bordercolor="#666666"
   borderopacity="1"
   objecttolerance="10"
   gridtolerance="10"
   guidetolerance="10"
   inkscape:pageopacity="0"
   inkscape:pageshadow="2"
   inkscape:window-width="1366"
   inkscape:window-height="744"
   id="namedview3801"
   showgrid="false"
   inkscape:zoom="1.2649355"
   inkscape:cx="279.74513"
   inkscape:cy="-46.866378"
   inkscape:window-x="0"
   inkscape:window-y="0"
   inkscape:window-maximized="0"
   inkscape:current-layer="svg3799"
   inkscape:pagecheckerboard="true"
   showguides="true"
   inkscape:guide-bbox="true"><sodipodi:guide
     position="89.947496,2.8108593"
     orientation="0,1"
     id="guide4678"
     inkscape:locked="false" /></sodipodi:namedview><g
   id="g4685"
   transform="translate(0,1.7573186e-6)"
   style="fill:#00ff00;fill-opacity:1;stroke:#00e3ff;stroke-opacity:1"
   inkscape:export-xdpi="96"
   inkscape:export-ydpi="96"><path
     inkscape:export-ydpi="96"
     inkscape:export-xdpi="96"
     inkscape:export-filename="/home/lurker/Documents/Source/massmesh.github.io/images/radio_tower.png"
     d="m 70.756,15.45 c -0.662,0.452 -0.831,1.356 -0.379,2.018 v 0 c 2.5,3.658 3.975,7.996 3.976,12.654 0,4.716 -1.543,9.119 -4.109,12.774 -0.461,0.656 -0.303,1.561 0.354,2.022 0.656,0.461 1.561,0.302 2.022,-0.354 2.881,-4.102 4.636,-9.088 4.636,-14.443 0.001,-5.277 -1.678,-10.193 -4.482,-14.292 -0.453,-0.662 -1.356,-0.831 -2.018,-0.379 z"
     id="path3787"
     style="fill:#00ff00;fill-opacity:1;stroke:#00e3ff;stroke-width:4;stroke-miterlimit:4;stroke-dasharray:none;stroke-opacity:1"
     inkscape:connector-curvature="0" /><path
     inkscape:export-ydpi="96"
     inkscape:export-xdpi="96"
     inkscape:export-filename="/home/lurker/Documents/Source/massmesh.github.io/images/radio_tower.png"
     d="m 85.485,5.308 c -0.664,0.45 -0.837,1.352 -0.388,2.016 v 0 c 4.403,6.5 6.941,14.381 6.941,22.797 -10e-4,8.479 -2.602,16.359 -7.014,22.939 -0.447,0.666 -0.269,1.568 0.397,2.014 0.666,0.447 1.568,0.269 2.014,-0.397 C 92.15,47.648 94.941,39.198 94.941,30.121 94.941,21.118 92.224,12.668 87.5,5.695 87.052,5.032 86.149,4.858 85.485,5.308 Z"
     id="path3789"
     style="fill:#00ff00;fill-opacity:1;stroke:#00e3ff;stroke-width:4;stroke-miterlimit:4;stroke-dasharray:none;stroke-opacity:1"
     inkscape:connector-curvature="0" /><path
     inkscape:export-ydpi="96"
     inkscape:export-xdpi="96"
     inkscape:export-filename="/home/lurker/Documents/Source/massmesh.github.io/images/radio_tower.png"
     d="m 29.402,44.918 c 0.656,-0.461 0.814,-1.366 0.354,-2.022 v 0 c -2.566,-3.655 -4.109,-8.059 -4.109,-12.774 0.001,-4.658 1.476,-8.996 3.976,-12.654 0.452,-0.662 0.283,-1.565 -0.379,-2.017 -0.662,-0.453 -1.565,-0.283 -2.017,0.379 -2.804,4.099 -4.483,9.015 -4.482,14.292 0,5.355 1.755,10.341 4.636,14.443 0.46,0.655 1.365,0.814 2.021,0.353 z"
     id="path3791"
     style="fill:#00ff00;fill-opacity:1;stroke:#00e3ff;stroke-width:4;stroke-miterlimit:4;stroke-dasharray:none;stroke-opacity:1"
     inkscape:connector-curvature="0" /><path
     inkscape:export-ydpi="96"
     inkscape:export-xdpi="96"
     inkscape:export-filename="/home/lurker/Documents/Source/massmesh.github.io/images/radio_tower.png"
     d="M 14.975,53.06 C 10.563,46.48 7.962,38.6 7.961,30.121 7.961,21.704 10.499,13.824 14.902,7.324 15.352,6.66 15.178,5.758 14.514,5.308 13.85,4.858 12.948,5.032 12.498,5.696 7.774,12.668 5.057,21.119 5.057,30.122 c -0.001,9.077 2.791,17.527 7.506,24.556 0.446,0.666 1.348,0.844 2.014,0.397 0.667,-0.447 0.845,-1.349 0.398,-2.015 z"
     id="path3793"
     style="fill:#00ff00;fill-opacity:1;stroke:#00e3ff;stroke-width:4;stroke-miterlimit:4;stroke-dasharray:none;stroke-opacity:1"
     inkscape:connector-curvature="0" /><path
     inkscape:export-ydpi="96"
     inkscape:export-xdpi="96"
     inkscape:export-filename="/home/lurker/Documents/Source/massmesh.github.io/images/radio_tower.png"
     d="m 52.104,40.152 c 4.607,-0.958 8.07,-5.031 8.071,-9.918 -10e-4,-5.599 -4.546,-10.132 -10.15,-10.132 -5.604,0.001 -10.148,4.534 -10.15,10.132 10e-4,4.87 3.441,8.93 8.024,9.906 l -11.007,26.03 -0.095,0.225 -9.326,22.056 c -0.258,0.608 -0.386,1.239 -0.385,1.848 -10e-4,1.337 0.603,2.518 1.476,3.329 0.875,0.814 2.038,1.311 3.294,1.314 1.104,0.006 2.275,-0.417 3.205,-1.291 L 50,79.736 64.832,93.547 c 0.93,0.874 2.1,1.297 3.204,1.291 1.256,-0.003 2.418,-0.5 3.294,-1.313 0.873,-0.81 1.477,-1.992 1.476,-3.329 0.001,-0.608 -0.126,-1.236 -0.383,-1.843 z M 50,75.774 39.929,66.442 49.998,42.631 60.047,66.468 Z M 42.778,30.235 c 0.001,-2 0.808,-3.798 2.121,-5.111 1.316,-1.311 3.119,-2.118 5.125,-2.118 2.006,0.001 3.809,0.808 5.125,2.118 1.313,1.313 2.121,3.111 2.121,5.111 -0.001,2 -0.808,3.798 -2.121,5.111 -1.301,1.297 -3.08,2.097 -5.061,2.115 L 50,37.448 49.924,37.459 c -1.966,-0.027 -3.731,-0.825 -5.025,-2.113 -1.313,-1.314 -2.12,-3.111 -2.121,-5.111 z m -9.696,61.291 c -0.423,0.386 -0.814,0.506 -1.226,0.513 -0.462,0.003 -0.959,-0.2 -1.313,-0.533 -0.356,-0.337 -0.553,-0.752 -0.554,-1.206 10e-4,-0.212 0.042,-0.446 0.156,-0.716 l 8.582,-20.297 9.14,8.469 z M 69.35,91.401 c -0.354,0.333 -0.851,0.536 -1.313,0.533 -0.412,-0.006 -0.803,-0.127 -1.226,-0.512 l -14.678,-13.667 9.114,-8.442 8.502,20.166 c 0.113,0.271 0.154,0.503 0.155,0.716 -10e-4,0.455 -0.198,0.87 -0.554,1.206 z"
     id="path3795"
     style="fill:#00ff00;fill-opacity:1;stroke:#00e3ff;stroke-width:4;stroke-miterlimit:4;stroke-dasharray:none;stroke-opacity:1"
     inkscape:connector-curvature="0" /></g><flowRoot
   xml:space="preserve"
   id="flowRoot4617"
   style="font-style:normal;font-weight:normal;font-size:40px;line-height:1.25;font-family:sans-serif;letter-spacing:0px;word-spacing:0px;fill:#fffff7;fill-opacity:1;stroke:#ffffff;stroke-opacity:1"
   inkscape:export-filename="/home/lurker/Documents/Source/massmesh.github.io/images/radio_tower.png"
   inkscape:export-xdpi="96"
   inkscape:export-ydpi="96"><flowRegion
     id="flowRegion4619"
     style="fill:#fffff7;fill-opacity:1;stroke:#ffffff;stroke-opacity:1"><rect
       id="rect4621"
       width="75.650543"
       height="46.293617"
       x="-76.497383"
       y="52.012714"
       style="fill:#fffff7;fill-opacity:1;stroke:#ffffff;stroke-opacity:1" /></flowRegion><flowPara
     id="flowPara4623">MAS</flowPara></flowRoot><text
   xml:space="preserve"
   style="font-style:normal;font-weight:normal;font-size:40px;line-height:1.25;font-family:sans-serif;letter-spacing:0px;word-spacing:0px;fill:#000000;fill-opacity:1;stroke:none"
   x="140.47499"
   y="84.631302"
   id="text4676"><tspan
     sodipodi:role="line"
     id="tspan4674"
     x="140.47499"
     y="84.631302"
     style="font-style:normal;font-variant:normal;font-weight:bold;font-stretch:normal;font-size:73.33333333px;font-family:Multicolore;-inkscape-font-specification:'Multicolore Bold';fill:#ffffff;fill-opacity:1">MASS MESH</tspan></text>

</svg>